<?xml version="1.0" encoding="utf-8"?>
<!-- Generator: Adobe Illustrator 25.2.0, SVG Export Plug-In . SVG Version: 6.00 Build 0)  -->
<svg version="1.1" id="Capa_1" xmlns="http://www.w3.org/2000/svg" xmlns:xlink="http://www.w3.org/1999/xlink" x="0px" y="0px"
	 viewBox="0 0 470.6 408.9" style="enable-background:new 0 0 470.6 408.9;" xml:space="preserve">
<style type="text/css">
	.st0{fill:#FF7F00;}
</style>
<path class="st0" d="M416.1,29.6c-0.6,0-1.1,0.1-1.7,0.2c0,0,0,0,0,0l-55.6,9.5c-3.5,0.6-6.5,3-7.8,6.4c0,0,0,0,0,0l-25.8,66.2
	l-251.9,6.3c-2.9,0.1-5.6,1.4-7.5,3.6c-1.9,2.2-2.8,5.1-2.4,8l13.9,115c0.6,4.8,4.6,8.7,9.4,9L266.2,268l35.6,28
	c0,0,0.1,0.1,0.1,0.1c0,0,0.1,0,0.1,0.1c0,0,0.1,0.1,0.1,0.1c6.5,4.8,8.1,11.5,7.2,15.1c-0.5,2.1-1.3,3.6-3.2,4.8s-5.2,2-10.8,1.7
	c0,0,0,0-0.1,0c-0.2,0-0.4,0-0.6,0c0,0-0.1,0-0.1,0l-214.2,0.6h0c-5.6,0-10.4,4.7-10.3,10.3c0,5.6,4.8,10.3,10.4,10.2h0l15.7,0
	c-5.8,3.7-9.7,10.2-9.7,17.6c0,11.5,9.4,20.8,20.8,20.8c11.5,0,20.8-9.4,20.8-20.8c0-7.4-3.9-14-9.8-17.7l176.4-0.5
	c-6.4,3.6-10.7,10.4-10.7,18.2c0,11.5,9.4,20.8,20.8,20.8c11.5,0,20.8-9.4,20.8-20.8c0-10-7.1-18.3-16.4-20.4
	c8.9-3.1,15.7-9.6,19.9-19.5c0.1-0.1,0.1-0.2,0.2-0.4c3.2-12.9-2.5-27-14.3-36.1c0,0-0.1-0.1-0.1-0.1c0,0,0-0.1-0.1-0.1
	c-0.1-0.1-0.2-0.2-0.3-0.3L289.3,260l78.7-201.5l49.9-8.5c0,0,0,0,0,0c5.2-0.8,9.1-5.7,8.6-11C426,33.7,421.4,29.5,416.1,29.6
	L416.1,29.6L416.1,29.6z M317.5,127.7L303,164.9h-18.9v-36.3L317.5,127.7z M276.9,128.8v36.2H242v-35.3L276.9,128.8L276.9,128.8z
	 M234.8,129.8v35.1h-34.9v-34.2L234.8,129.8z M192.6,130.9v34.1h-34.9v-33.2L192.6,130.9z M150.5,131.9v33h-34.9v-32.1L150.5,131.9z
	 M108.4,132.9v32H82.8L79,133.7L108.4,132.9z M83.7,172.1h24.7v32.7H87.6L83.7,172.1L83.7,172.1z M115.6,172.1h34.9v32.7h-34.9
	V172.1z M157.7,172.1h34.9v32.7h-34.9V172.1z M199.9,172.1h34.9v32.7h-34.9V172.1z M242,172.1h34.9v32.7H242V172.1z M284.1,172.1
	h16.1l-12.8,32.7h-3.4V172.1z M88.5,211.9h19.9v23.4L91.1,234L88.5,211.9z M115.6,211.9h34.9v26.8l-34.9-2.8V211.9z M157.7,211.9
	h34.9v30.1l-34.9-2.8V211.9z M199.9,211.9h34.9v33.5l-34.9-2.8V211.9z M242,211.9h34.9v19.9l-6.6,17c-0.9-0.4-1.8-0.7-2.8-0.8
	l-25.5-2V211.9L242,211.9z M284.1,211.9h0.5l-0.5,1.5V211.9z M107.3,344.4c6.8,0,12.2,5.4,12.2,12.2s-5.4,12.2-12.2,12.2
	S95,363.5,95,356.6S100.5,344.4,107.3,344.4z M304.9,344.4c6.8,0,12.2,5.4,12.2,12.2s-5.4,12.2-12.2,12.2s-12.2-5.4-12.2-12.2
	S298.1,344.4,304.9,344.4z M107.3,350.2c-3.7,0-6.7,3-6.7,6.7c0,3.7,3,6.6,6.7,6.6s6.7-2.9,6.7-6.6
	C113.9,353.2,111,350.2,107.3,350.2z M304.9,350.2c-3.7,0-6.7,3-6.7,6.7c0,3.7,3,6.6,6.7,6.6s6.7-2.9,6.7-6.6
	C311.5,353.2,308.6,350.2,304.9,350.2z"/>
</svg>
